<?xml version="1.0" encoding="utf-8"?>
<!-- Generator: Adobe Illustrator 26.0.1, SVG Export Plug-In . SVG Version: 6.00 Build 0)  -->
<svg version="1.1" id="Layer_1" xmlns="http://www.w3.org/2000/svg" xmlns:xlink="http://www.w3.org/1999/xlink" x="0px" y="0px"
	 viewBox="0 0 2000 2000" style="enable-background:new 0 0 2000 2000;" xml:space="preserve">
<style type="text/css">
	.st0{fill:#88C5DD;}
	.st1{fill:#F6A7A6;}
</style>
<g>
	<path class="st1" d="M1372.4,627.6c-95.2-95.3-227-154.3-372.4-154.2c-145.4,0-277.1,59-372.4,154.2
		c-95.3,95.2-154.3,227-154.2,372.4c0,145.3,59,277.1,154.2,372.4c95.2,95.3,227,154.3,372.4,154.2c145.3,0,277.1-59,372.4-154.2
		c95.3-95.2,154.3-227,154.2-372.4C1526.6,854.6,1467.6,722.9,1372.4,627.6z M1341.1,1341.1c-87.4,87.3-207.8,141.3-341.1,141.3
		c-133.3,0-253.7-54-341.1-141.3c-87.3-87.4-141.3-207.8-141.3-341.1c0-133.3,54-253.7,141.3-341.1
		c87.4-87.3,207.8-141.3,341.1-141.3c133.3,0,253.7,54,341.1,141.3c87.3,87.4,141.3,207.8,141.3,341.1
		C1482.4,1133.3,1428.4,1253.7,1341.1,1341.1z"/>
	<polygon class="st1" points="580.8,1249.6 1427.4,1249.6 1385.9,1316 1276.2,1416 1164.1,1474.9 1032.6,1495.9 906.7,1492.7 
		786.5,1448.3 687.3,1383.8 621.9,1320 580.8,1269.2 	"/>
</g>
</svg>
