<?xml version="1.0" encoding="utf-8"?>
<!-- Generator: Adobe Illustrator 26.0.1, SVG Export Plug-In . SVG Version: 6.00 Build 0)  -->
<svg version="1.1" id="Layer_1" xmlns="http://www.w3.org/2000/svg" xmlns:xlink="http://www.w3.org/1999/xlink" x="0px" y="0px"
	 viewBox="0 0 2000 2000" style="enable-background:new 0 0 2000 2000;" xml:space="preserve">
<style type="text/css">
	.st0{fill:#88C5DD;}
	.st1{fill:#F6A7A6;}
</style>
<g>
	<g>
		<path class="st0" d="M501.8,873.1v140.3c0,6.3-5.1,11.4-11.4,11.4c-6,0-11.4-5.1-11.4-11.4v-58h-76.3v58c0,6.3-5.1,11.4-11.4,11.4
			c-6.3,0-11.1-5.1-11.1-11.4V873.1c0-6.3,4.9-11.1,11.1-11.1c6.3,0,11.4,4.9,11.4,11.1v59.8h76.3v-59.8c0-6.3,5.3-11.1,11.4-11.1
			C496.7,861.9,501.8,866.8,501.8,873.1z"/>
		<path class="st0" d="M704.5,925.7V976c0,13.9,11.8,25.5,26,25.5c14.1,0,25.7-11.6,25.7-25.5v-50.3c0-6.5,5.1-11.4,11.4-11.4
			c6.3,0,11.4,4.9,11.4,11.4V976c0,26.7-21.8,48.5-48.5,48.5c-26.9,0-48.7-21.8-48.7-48.5v-50.3c0-6.5,5.3-11.4,11.4-11.4
			C699.6,914.4,704.5,919.2,704.5,925.7z"/>
		<path class="st0" d="M816,1013.4v-51c0-26.7,21.8-48.2,48.5-48.2c20.6,0,39,13,45.7,32.7c2.1,5.8-1.2,12.3-7,14.4
			c-6,1.9-12.5-1.2-14.6-7.2c-3.5-10.4-13.2-17.4-24.1-17.4c-14.1,0-25.7,11.6-25.7,25.7v51c0,6-5.1,11.1-11.4,11.1
			C821.3,1024.5,816,1019.4,816,1013.4z"/>
		<path class="st0" d="M943.1,972.6v-99c0-6.3,5.1-11.4,11.4-11.4c6,0,11.4,5.1,11.4,11.4v99c0,20.9,10.9,29.2,26.7,29.2
			c6.3,0,11.1,5.1,11.1,11.4c0,6.3-4.9,11.4-11.1,11.4C962.1,1024.5,943.1,1004.1,943.1,972.6z"/>
		<path class="st0" d="M1127.9,931.3l-56.8,128c-2.1,4.4-6,6.7-10.4,6.7c-1.9,0-3.2-0.2-4.9-0.9c-5.8-2.6-8.1-9.5-5.6-15.1l15.5-35
			l-38.7-83.7c-2.8-5.8-0.5-12.8,5.3-15.3c5.6-2.8,12.5-0.2,15.1,5.3l30.6,65.9l29-65.4c2.6-6,9.3-8.6,15.3-5.8
			C1127.9,918.5,1130.4,925.3,1127.9,931.3z"/>
		<path class="st0" d="M1262.6,968.6v0.5c0,0.2,0,0.7,0,0.9c0,30.4-24.8,55.2-55,55.2c-30.6,0-55.2-24.8-55.2-55.2
			c0-30.4,24.6-55,55.2-55c12.8,0,24.6,4.4,34.1,11.8v-53.8c0-6,4.6-10.9,10.7-10.9c5.6,0,10.2,4.9,10.2,10.9V968.6z M1240.1,970
			c0-17.9-14.6-32.5-32.5-32.5c-18.1,0-32.7,14.6-32.7,32.5c0,18.1,14.6,32.7,32.7,32.7C1225.5,1002.7,1240.1,988.1,1240.1,970z"/>
		<path class="st0" d="M1504.2,1013.1c0,6.3-5.1,11.4-11.4,11.4h-3.2c-24.8,0-52.4-16.2-52.4-55.7v-95.5c0-6,5.1-11.1,11.4-11.1
			c6.3,0,11.4,5.1,11.4,11.1V915h28.1c5.8,0,10.4,4.6,10.4,10.4c0,6-4.6,10.7-10.4,10.7h-28.1v32.7c0,19,10.7,32.9,29.7,32.9
			l3.2,0.2C1499.1,1002,1504.2,1006.9,1504.2,1013.1z"/>
		<path class="st0" d="M1538.8,1014.5c-5.6-2.3-8.1-8.8-6-14.4c2.3-5.8,8.8-8.3,14.4-6c21.3,13.2,47.8,10,48-1.6
			c0-5.8-7.9-10.7-19.7-13.2c-33.9-8.6-40.3-24.3-39.4-36.2c1.2-16.9,19.7-29.2,41.7-28.5c12.5,0,22.5,3.5,31.3,8.6
			c5.6,2.6,8.1,9.3,5.6,14.6c-2.6,5.6-9,8.3-14.6,5.6c-19-11.8-39-6.3-39.7,1.9c-0.5,3,2.8,10,19.5,13.7
			c34.8,8.8,39.9,23.9,39.9,33.6c0,15.5-12.8,32-41.5,32.7C1562,1025.4,1547.3,1018.9,1538.8,1014.5z"/>
		<g>
			<path class="st1" d="M631.1,931.2c-10-10-23.7-16.1-38.9-16.1c-15.2,0-29,6.2-38.9,16.1c-10,10-16.1,23.7-16.1,38.9
				c0,15.2,6.2,29,16.1,38.9c10,10,23.7,16.1,38.9,16.1c15.2,0,29-6.2,38.9-16.1c10-10,16.1-23.7,16.1-38.9
				C647.2,954.9,641,941.1,631.1,931.2z M627.8,1005.8c-9.1,9.1-21.7,14.8-35.7,14.8c-13.9,0-26.5-5.6-35.7-14.8
				c-9.1-9.1-14.8-21.7-14.8-35.7c0-13.9,5.6-26.5,14.8-35.7c9.1-9.1,21.7-14.8,35.7-14.8c13.9,0,26.5,5.6,35.7,14.8
				c9.1,9.1,14.8,21.7,14.8,35.7C642.6,984.1,636.9,996.7,627.8,1005.8z"/>
			<polygon class="st1" points="548.3,996.2 636.8,996.2 632.5,1003.2 621,1013.6 609.3,1019.8 595.5,1022 582.4,1021.6 569.8,1017 
				559.4,1010.3 552.6,1003.6 548.3,998.3 			"/>
		</g>
		<g>
			<path class="st1" d="M1351.1,915.1c-30.3,0-54.9,24.6-54.9,54.9c0,20.9,11.7,39.1,28.8,48.3c0.3,0,0.6,0,0.8,0h50.4
				c0.3,0,0.6,0,0.8,0c17.2-9.3,28.9-27.4,28.9-48.3C1406,939.7,1381.4,915.1,1351.1,915.1z M1351.1,1003.7
				c-18.6,0-33.6-15.1-33.6-33.6c0-18.6,15.1-33.6,33.6-33.6c18.6,0,33.6,15.1,33.6,33.6C1384.7,988.6,1369.6,1003.7,1351.1,1003.7z
				"/>
			<path class="st1" d="M1376.3,1022.9h-50.4c-3.9,0-7.1,3.2-7.1,7.1c0,3.9,3.2,7.1,7.1,7.1h50.4c3.9,0,7.1-3.2,7.1-7.1
				C1383.4,1026.1,1380.2,1022.9,1376.3,1022.9z"/>
			<path class="st1" d="M1364.7,1043.6h-27.3c-3.9,0-7.1,3.2-7.1,7.1c0,3.9,3.2,7.1,7.1,7.1h27.3c3.9,0,7.1-3.2,7.1-7.1
				C1371.8,1046.8,1368.7,1043.6,1364.7,1043.6z"/>
			<path class="st1" d="M1351.3,906.2c2.5,0,4.6-2,4.6-4.6v-13.8c0-2.5-2-4.6-4.6-4.6s-4.6,2-4.6,4.6v13.8
				C1346.7,904.1,1348.7,906.2,1351.3,906.2z"/>
			<path class="st1" d="M1305.9,924.4L1305.9,924.4c1.8-1.8,1.8-4.7,0-6.5l-9.8-9.8c-1.8-1.8-4.7-1.8-6.5,0c-1.8,1.8-1.8,4.7,0,6.5
				l9.8,9.8C1301.2,926.2,1304.1,926.2,1305.9,924.4z"/>
			<path class="st1" d="M1412.4,909.1c-1.8-1.8-4.7-1.8-6.5,0l-9.8,9.8c-1.8,1.8-1.8,4.7,0,6.5c1.8,1.8,4.7,1.8,6.5,0l9.8-9.8
				C1414.2,913.8,1414.2,910.9,1412.4,909.1z"/>
		</g>
	</g>
	<g>
		<path class="st0" d="M624.8,1120.2c0-9.9,8-17.9,18-17.9c9.8,0,17.8,8,17.8,17.9c0,9.8-8,17.9-17.8,17.9
			C632.9,1138.1,624.8,1130,624.8,1120.2z M655.7,1120.2c0-7.2-5.8-13-12.9-13c-7.2,0-13,5.8-13,13c0,7.1,5.8,13,13,13
			C649.9,1133.2,655.7,1127.3,655.7,1120.2z"/>
		<path class="st0" d="M670.2,1135.2V1105c0-1,0.6-1.9,1.7-2.3c1-0.4,2.1-0.1,2.7,0.8l19.2,24.6V1105c0-1.3,1-2.4,2.4-2.4
			c1.4,0,2.5,1.1,2.5,2.4v30.2c0,1.1-0.6,2-1.7,2.3c-0.2,0.1-0.5,0.2-0.8,0.2c-0.7,0-1.4-0.3-1.9-1l-19.1-24.6v23.1
			c0,1.4-1.1,2.5-2.5,2.5C671.3,1137.7,670.2,1136.6,670.2,1135.2z"/>
		<path class="st0" d="M733.5,1135.3c0,1.3-1.1,2.4-2.4,2.4h-19c-1.4,0-2.5-1.1-2.5-2.4v-30.2c0-1.3,1.1-2.4,2.5-2.4h19
			c1.4,0,2.4,1.1,2.4,2.4c0,1.3-1.1,2.4-2.4,2.4h-16.6v10.2h14c1.3,0,2.4,1,2.4,2.4s-1.1,2.4-2.4,2.4h-14v10.2h16.6
			C732.4,1132.8,733.5,1133.9,733.5,1135.3z"/>
		<path class="st1" d="M795.4,1120.1c0,9.7-7.8,17.5-17.5,17.5h-9c-1.2-0.1-2.3-1-2.4-2.2c0,0,0-0.2,0-0.3v-29v-1.1
			c0-1.3,1.1-2.4,2.4-2.4h9C787.5,1102.7,795.4,1110.5,795.4,1120.1z M790.5,1120.1c0-7-5.6-12.6-12.7-12.6h-6.6v25.3l6.6,0.1
			C784.9,1132.9,790.5,1127.2,790.5,1120.1z"/>
		<path class="st1" d="M802.8,1120.2c0-9.9,8-17.9,18-17.9c9.8,0,17.8,8,17.8,17.9c0,9.8-8,17.9-17.8,17.9
			C810.8,1138.1,802.8,1130,802.8,1120.2z M833.7,1120.2c0-7.2-5.8-13-12.9-13c-7.2,0-13,5.8-13,13c0,7.1,5.8,13,13,13
			C827.9,1133.2,833.7,1127.3,833.7,1120.2z"/>
		<path class="st1" d="M871.7,1105.1c0,1.3-1.1,2.4-2.4,2.4h-8.4v27.7c0,1.3-1,2.4-2.4,2.4c-1.3,0-2.5-1.1-2.5-2.4v-27.7h-8.3
			c-1.3,0-2.5-1.1-2.5-2.4c0-1.3,1.1-2.4,2.5-2.4h21.6C870.6,1102.7,871.7,1103.8,871.7,1105.1z"/>
		<path class="st1" d="M876.5,1134.9c0-1.5,1.3-2.7,2.7-2.7c1.6,0,2.8,1.2,2.8,2.7s-1.2,2.8-2.8,2.8
			C877.8,1137.7,876.5,1136.4,876.5,1134.9z"/>
		<path class="st0" d="M940.1,1105.1c0,1.3-1.1,2.4-2.4,2.4h-8.4v27.7c0,1.3-1,2.4-2.4,2.4c-1.3,0-2.5-1.1-2.5-2.4v-27.7H916
			c-1.3,0-2.5-1.1-2.5-2.4c0-1.3,1.1-2.4,2.5-2.4h21.6C939,1102.7,940.1,1103.8,940.1,1105.1z"/>
		<path class="st0" d="M946.6,1120.2c0-9.9,8-17.9,18-17.9c9.8,0,17.8,8,17.8,17.9c0,9.8-8,17.9-17.8,17.9
			C954.7,1138.1,946.6,1130,946.6,1120.2z M977.6,1120.2c0-7.2-5.8-13-12.9-13c-7.2,0-13,5.8-13,13c0,7.1,5.8,13,13,13
			C971.7,1133.2,977.6,1127.3,977.6,1120.2z"/>
		<path class="st0" d="M1015.6,1105.1c0,1.3-1.1,2.4-2.4,2.4h-8.4v27.7c0,1.3-1,2.4-2.4,2.4c-1.4,0-2.5-1.1-2.5-2.4v-27.7h-8.3
			c-1.3,0-2.5-1.1-2.5-2.4c0-1.3,1.1-2.4,2.5-2.4h21.6C1014.5,1102.7,1015.6,1103.8,1015.6,1105.1z"/>
		<path class="st0" d="M1017,1134.2l13.6-30.1c0.8-1.9,3.5-2,4.4,0l13.6,30.1c1.3,2.9-3.2,5-4.4,2l-3-6.8h-16.7l-3,6.8
			C1020.1,1139.2,1015.6,1137.2,1017,1134.2z M1038.9,1124.5l-6.1-13.5l-6.1,13.5H1038.9z"/>
		<path class="st0" d="M1057.6,1135.3v-30.2c0-1.3,1.1-2.4,2.4-2.4c1.3,0,2.4,1.1,2.4,2.4v27.7h17.3c1.3,0,2.4,1.1,2.4,2.5
			c0,1.3-1,2.4-2.4,2.4H1060C1058.7,1137.7,1057.6,1136.6,1057.6,1135.3z"/>
		<path class="st1" d="M1113.7,1120.2c0-9.8,8-17.8,17.8-17.8c3.6,0,7,1,9.9,3c1.1,0.7,1.4,2.2,0.6,3.4c-0.8,1.1-2.3,1.4-3.4,0.6
			c-2.1-1.4-4.6-2.2-7.2-2.2c-7.1,0-12.9,5.7-12.9,12.8c0,7.1,5.7,12.9,12.9,12.9c2.7,0,5.4-0.9,7.6-2.5c1.1-0.8,2.6-0.6,3.4,0.6
			c0.8,1.1,0.6,2.6-0.5,3.4c-3,2.3-6.6,3.5-10.5,3.5C1121.7,1138,1113.7,1130,1113.7,1120.2z"/>
		<path class="st1" d="M1150.7,1120.2c0-9.9,8-17.9,18-17.9c9.8,0,17.8,8,17.8,17.9c0,9.8-8,17.9-17.8,17.9
			C1158.8,1138.1,1150.7,1130,1150.7,1120.2z M1181.7,1120.2c0-7.2-5.8-13-12.9-13c-7.2,0-13,5.8-13,13c0,7.1,5.8,13,13,13
			C1175.8,1133.2,1181.7,1127.3,1181.7,1120.2z"/>
		<path class="st1" d="M1196.1,1135.2V1105c0-1,0.6-1.9,1.7-2.3c1-0.4,2.1-0.1,2.7,0.8l19.2,24.6V1105c0-1.3,1-2.4,2.4-2.4
			c1.4,0,2.5,1.1,2.5,2.4v30.2c0,1.1-0.7,2-1.7,2.3c-0.2,0.1-0.5,0.2-0.8,0.2c-0.7,0-1.4-0.3-1.9-1l-19.1-24.6v23.1
			c0,1.4-1.1,2.5-2.5,2.5C1197.2,1137.7,1196.1,1136.6,1196.1,1135.2z"/>
		<path class="st1" d="M1260.1,1105.1c0,1.3-1.1,2.4-2.4,2.4h-8.4v27.7c0,1.3-1,2.4-2.4,2.4c-1.4,0-2.5-1.1-2.5-2.4v-27.7h-8.3
			c-1.3,0-2.5-1.1-2.5-2.4c0-1.3,1.1-2.4,2.5-2.4h21.6C1259,1102.7,1260.1,1103.8,1260.1,1105.1z"/>
		<path class="st1" d="M1268.7,1135.3v-30.2c0-1.3,1.1-2.4,2.4-2.4h13.6c6.4,0,11.7,5.2,11.7,11.7c0,5.1-3.5,9.4-8,10.7l7.4,8.5
			c0.9,1.1,0.8,2.5-0.2,3.5c-0.5,0.4-1,0.6-1.6,0.6c-0.7,0-1.4-0.2-1.8-0.9l-9.4-10.7h-9.2v9.2c0,1.3-1.1,2.4-2.5,2.4
			C1269.8,1137.7,1268.7,1136.6,1268.7,1135.3z M1284.7,1121.2c3.7,0,6.8-3,6.8-6.8c0-3.8-3.1-6.8-6.8-6.8h-11.1v13.7H1284.7z"/>
		<path class="st1" d="M1304.5,1120.2c0-9.9,8-17.9,18-17.9c9.8,0,17.8,8,17.8,17.9c0,9.8-8,17.9-17.8,17.9
			C1312.5,1138.1,1304.5,1130,1304.5,1120.2z M1335.4,1120.2c0-7.2-5.8-13-12.9-13c-7.2,0-13,5.8-13,13c0,7.1,5.8,13,13,13
			C1329.6,1133.2,1335.4,1127.3,1335.4,1120.2z"/>
		<path class="st1" d="M1350.6,1135.3v-30.2c0-1.3,1.1-2.4,2.4-2.4c1.3,0,2.4,1.1,2.4,2.4v27.7h17.3c1.3,0,2.4,1.1,2.4,2.5
			c0,1.3-1,2.4-2.4,2.4H1353C1351.7,1137.7,1350.6,1136.6,1350.6,1135.3z"/>
	</g>
</g>
</svg>
